<?xml version="1.0" encoding="UTF-8"?>
<!-- Generator: Adobe Illustrator 16.0.3, SVG Export Plug-In . SVG Version: 6.00 Build 0)  -->
<!DOCTYPE svg PUBLIC "-//W3C//DTD SVG 1.1//EN" "http://www.w3.org/Graphics/SVG/1.1/DTD/svg11.dtd">
<svg version="1.1" id="Capa_1" xmlns="http://www.w3.org/2000/svg" xmlns:xlink="http://www.w3.org/1999/xlink" x="0px" y="0px" width="2500px" height="2500px" viewBox="0 0 2500 2500" enable-background="new 0 0 2500 2500" xml:space="preserve">
<path d="M0,0h2500v2500H0V0z"/>
<path d="M2272.442,1770.94V164.274H241.531V1770.94H2272.442L2272.442,1770.94z"/>
<linearGradient id="SVGID_1_" gradientUnits="userSpaceOnUse" x1="919.647" y1="1619.542" x2="961.861" y2="1661.756" gradientTransform="matrix(13.1704 0 0 -13.1704 -11494.916 22539.5176)">
	<stop offset="0.17" style="stop-color:#C9CA02"/>
	<stop offset="0.418" style="stop-color:#C8C903"/>
	<stop offset="0.578" style="stop-color:#BFC705"/>
	<stop offset="0.713" style="stop-color:#B3C30C"/>
	<stop offset="0.834" style="stop-color:#A0BD13"/>
	<stop offset="0.944" style="stop-color:#8AB61E"/>
	<stop offset="1" style="stop-color:#7CB224"/>
</linearGradient>
<path fill="url(#SVGID_1_)" d="M1241.268,735.684L681,473.83v785.561l560.268-2.028V735.684z"/>
<linearGradient id="SVGID_2_" gradientUnits="userSpaceOnUse" x1="971.978" y1="1661.6992" x2="1014.01" y2="1619.6672" gradientTransform="matrix(13.1704 0 0 -13.1704 -11494.916 22539.5176)">
	<stop offset="0" style="stop-color:#537E18"/>
	<stop offset="0.077" style="stop-color:#66971D"/>
	<stop offset="0.151" style="stop-color:#75AB20"/>
	<stop offset="0.192" style="stop-color:#7CB224"/>
	<stop offset="0.197" style="stop-color:#81B321"/>
	<stop offset="0.229" style="stop-color:#95BA17"/>
	<stop offset="0.266" style="stop-color:#A9C010"/>
	<stop offset="0.309" style="stop-color:#B8C509"/>
	<stop offset="0.362" style="stop-color:#C2C805"/>
	<stop offset="0.437" style="stop-color:#C6CA02"/>
	<stop offset="0.644" style="stop-color:#C9CA02"/>
</linearGradient>
<path fill="url(#SVGID_2_)" d="M1796.438,473.844l-555.486,261.84v523.72h555.486V473.844z"/>
<linearGradient id="SVGID_3_" gradientUnits="userSpaceOnUse" x1="968.3818" y1="1630.6982" x2="1011.9058" y2="1587.1743" gradientTransform="matrix(13.1704 0 0 -13.1704 -11494.916 22539.5176)">
	<stop offset="0" style="stop-color:#568118"/>
	<stop offset="0.226" style="stop-color:#7CB224"/>
	<stop offset="0.259" style="stop-color:#84B421"/>
	<stop offset="0.379" style="stop-color:#9DBC16"/>
	<stop offset="0.507" style="stop-color:#B0C20D"/>
	<stop offset="0.644" style="stop-color:#BDC707"/>
	<stop offset="0.798" style="stop-color:#C8C903"/>
	<stop offset="1" style="stop-color:#C9CA02"/>
</linearGradient>
<path fill="url(#SVGID_3_)" d="M1892.082,1563.691v-68.999L1431.29,906.017v657.688h460.792V1563.691z"/>
<linearGradient id="SVGID_4_" gradientUnits="userSpaceOnUse" x1="965.7939" y1="1630.3408" x2="922.27" y2="1586.8168" gradientTransform="matrix(13.1704 0 0 -13.1704 -11494.916 22539.5176)">
	<stop offset="0" style="stop-color:#497014"/>
	<stop offset="0.271" style="stop-color:#7CB224"/>
	<stop offset="0.316" style="stop-color:#8AB61E"/>
	<stop offset="0.409" style="stop-color:#A0BD14"/>
	<stop offset="0.511" style="stop-color:#B3C30C"/>
	<stop offset="0.623" style="stop-color:#BFC705"/>
	<stop offset="0.756" style="stop-color:#C8C903"/>
	<stop offset="0.961" style="stop-color:#C9CA02"/>
</linearGradient>
<path fill="url(#SVGID_4_)" d="M1053.524,1567.59V909.915l-460.792,588.676v68.999H1053.524L1053.524,1567.59z"/>
<linearGradient id="SVGID_5_" gradientUnits="userSpaceOnUse" x1="917.396" y1="1669.5459" x2="950.475" y2="1669.5459" gradientTransform="matrix(13.1704 0 0 -13.1704 -11494.916 22539.5176)">
	<stop offset="0" style="stop-color:#000000"/>
	<stop offset="0" style="stop-color:#7A9347"/>
	<stop offset="0.234" style="stop-color:#677E40"/>
	<stop offset="0.575" style="stop-color:#516334"/>
	<stop offset="0.842" style="stop-color:#42502B"/>
	<stop offset="1" style="stop-color:#3B4928"/>
</linearGradient>
<path fill="url(#SVGID_5_)" d="M556.172,366.255l94.392,87.293c136.011,99.463,332.907,192.827,590.718,282.149v-48.73  L556.172,366.255z"/>
<linearGradient id="SVGID_6_" gradientUnits="userSpaceOnUse" x1="966.9434" y1="1668.5449" x2="1009.1119" y2="1668.5449" gradientTransform="matrix(13.1704 0 0 -13.1704 -11494.916 22539.5176)">
	<stop offset="0" style="stop-color:#455032"/>
	<stop offset="1" style="stop-color:#6F8742"/>
</linearGradient>
<path fill="url(#SVGID_6_)" d="M1796.438,473.844l66.984-81.195L1240.78,686.861l0.132,48.822  C1512.934,624.025,1697.99,536.745,1796.438,473.844z"/>
<linearGradient id="SVGID_7_" gradientUnits="userSpaceOnUse" x1="981.2402" y1="1618.5029" x2="1029.5591" y2="1618.5029" gradientTransform="matrix(13.1704 0 0 -13.1704 -11494.916 22539.5176)">
	<stop offset="0" style="stop-color:#3F4A30"/>
	<stop offset="0.165" style="stop-color:#465334"/>
	<stop offset="0.46" style="stop-color:#58683D"/>
	<stop offset="0.847" style="stop-color:#6F8644"/>
	<stop offset="1" style="stop-color:#7A9347"/>
</linearGradient>
<path fill="url(#SVGID_7_)" d="M1429.223,847.184l2.015,63.942c148.18,213.149,307.542,417.159,476.017,613.042l158.348,75.11  L1429.223,847.184L1429.223,847.184z"/>
<g>
	
		<linearGradient id="SVGID_8_" gradientUnits="userSpaceOnUse" x1="897.2402" y1="1618.0293" x2="943.2042" y2="1618.0293" gradientTransform="matrix(13.1704 0 0 -13.1704 -11494.916 22539.5176)">
		<stop offset="0" style="stop-color:#61911D"/>
		<stop offset="1" style="stop-color:#5B7236"/>
	</linearGradient>
	<path fill="url(#SVGID_8_)" d="M1053.406,914.326l1.014-65.97l-602.86,762.222l112.659-68.024   C702.244,1411.653,865.649,1202.573,1053.406,914.326L1053.406,914.326z"/>
</g>
<g>
	
		<radialGradient id="SVGID_9_" cx="967.0024" cy="1635.1455" r="106.6174" gradientTransform="matrix(13.1704 0 0 -13.1704 -11494.916 22539.5176)" gradientUnits="userSpaceOnUse">
		<stop offset="0" style="stop-color:#FFFFFF"/>
		<stop offset="0.012" style="stop-color:#F4F5F5"/>
		<stop offset="0.122" style="stop-color:#B4B6BA"/>
		<stop offset="0.226" style="stop-color:#84868A"/>
		<stop offset="0.32" style="stop-color:#616266"/>
		<stop offset="0.402" style="stop-color:#464347"/>
		<stop offset="0.47" style="stop-color:#212122"/>
		<stop offset="0.514" style="stop-color:#000000"/>
	</radialGradient>
	<path fill="url(#SVGID_9_)" d="M1682.766,1200.532c115.715,149.193,246.641,293.33,395.822,433.371l-22.311-1451.375   c-317.684,348.132-526.763,570.422-627.239,664.787C1532.57,997.537,1616.781,1115.28,1682.766,1200.532L1682.766,1200.532z"/>
</g>
<g>
	
		<radialGradient id="SVGID_10_" cx="967.1279" cy="1635.1846" r="108.1731" gradientTransform="matrix(13.1704 0 0 -13.1704 -11494.916 22539.5176)" gradientUnits="userSpaceOnUse">
		<stop offset="0" style="stop-color:#FFFFFF"/>
		<stop offset="0.25" style="stop-color:#85868B"/>
		<stop offset="0.441" style="stop-color:#000000"/>
	</radialGradient>
	<path fill="url(#SVGID_10_)" d="M1695.593,495.153c140.054-71.067,229.376-140.067,269.979-203.996L1200.9,200.334l-720.222,63.389   c62.929,86.279,173.56,169.516,331.894,247.655c59.873,30.45,130.927,61.914,215.151,95.394   c33.505,13.21,105.561,41.631,213.149,83.224C1439.812,613.897,1591.047,549.955,1695.593,495.153L1695.593,495.153z"/>
</g>
<g>
	<path d="M440.47,164.274h-49.744l4.069,1480.811c81.195-59.859,175.588-154.265,285.191-284.164   c122.801-145.15,246.628-315.668,374.525-512.552L871.826,671.755c-65.971-65.983-121.8-121.8-165.446-170.517   C608.945,396.691,520.638,284.019,440.47,164.274L440.47,164.274z"/>
</g>
<g>
	<path d="M241.11,1707.802v62.915h2030.911v-45.688c-156.306-89.296-293.317-172.532-411.047-248.657   c-226.347-149.194-433.385-305.5-620.141-470.946c-183.7,181.698-387.709,343.063-614.042,484.156   c-103.52,64.97-224.305,132.955-363.357,207.052L241.11,1707.802L241.11,1707.802z"/>
</g>
<g>
	<path fill="#84BF25" d="M2288.734,1749.803h-5.216l-6.269,19.834c-0.888,1.225-1.425,2.668-1.555,4.175   c-0.631-1.173-1.16-2.397-1.58-3.661l-6.796-20.348h-5.216v28.184h3.135v-23.996l8.337,23.996h3.121l8.363-23.482v23.482h3.648   v-28.184H2288.734z M2249.078,1753.477h8.877v-3.674h-21.916v3.674h9.391v24.51h3.648V1753.477z M2120.035,1749.855   l-157.137,127.159l-156.371-127.159h-88.439l201.362,162.693l-201.362,162.667h88.439l156.371-127.924l157.137,127.924h87.648   l-200.585-162.667l200.585-162.693H2120.035z M1692.023,1912.549c0-72.648-18.952-126.356-55.263-162.693h-321.396   c-37.917,36.337-56.869,90.046-56.869,162.693s18.952,126.344,56.869,162.681h321.396   C1673.072,2038.893,1692.023,1984.406,1692.023,1912.549z M1638.315,1912.549c0,24.483-5.506,49.731-15.792,75.821l-15.001,33.94   h-263.749l-15.015-33.94c-11.05-26.077-15.791-51.324-15.791-75.821c0-38.695,10.272-75.019,30.806-108.985h263.749   C1628.056,1837.53,1638.315,1873.854,1638.315,1912.549z M1176.364,1925.969v-26.828l23.693-12.67   c-5.531-60.794-23.693-106.588-54.485-136.616h-321.41c-30.806,29.238-49.758,75.045-54.499,135.826h-52.115v53.709h52.115   c4.741,60.795,23.693,105.811,54.499,135.813h321.396c30.793-30.806,48.955-75.796,54.486-135.813L1176.364,1925.969   L1176.364,1925.969z M1116.347,1803.551c14.85,25.28,24.763,53.15,29.212,82.13H824.162c4.741-30.792,14.211-57.634,29.212-82.13   H1116.347L1116.347,1803.551z M1145.559,1939.403c-4.443,29.226-14.354,57.352-29.212,82.907H853.374   c-15.014-24.471-24.471-52.102-29.212-82.907H1145.559z"/>
	<path fill="#84BF25" d="M540.67,1912.549l200.571-162.693h-88.452l-156.358,127.159l-157.148-127.159h-86.859l199.794,162.693   l-199.794,162.667h86.859l157.148-127.924l156.358,127.924h88.453L540.67,1912.549L540.67,1912.549z"/>
</g>
<g>
	<path fill="#7CB224" d="M1941.313,395.388h-5.215l-6.283,19.809c-0.877,1.229-1.413,2.67-1.554,4.175   c-0.629-1.163-1.153-2.38-1.567-3.635l-6.809-20.349h-5.216v28.172h3.135v-24.01l8.363,24.01h3.108l8.362-23.483v23.483h3.648   v-28.172H1941.313L1941.313,395.388z M1901.657,399.022h8.863v-3.635h-21.915v3.635h9.416v24.523h3.636V399.022z"/>
</g>
</svg>