<svg xmlns="http://www.w3.org/2000/svg" xml:space="preserve" width="800" height="800" viewBox="0 0 562.021 562.021"><path d="M62.292 562.021h437.443c17.91 0 32.432-14.52 32.432-32.434l-24.479-133.355c0-17.91-14.52-32.432-32.434-32.432l-78.961-16.086c-9.369-11.688-18.143-24.27-25.697-35.883-14.633 9.541-30.398 16.623-46.877 21.096a162.625 162.625 0 0 1-42.71 5.707 162.65 162.65 0 0 1-43.397-5.891c-16.227-4.486-31.757-11.506-46.188-20.912-7.509 11.545-16.221 24.049-25.53 35.678L86.769 363.8c-17.91 0-32.433 14.52-32.433 32.432l-24.48 133.355c.003 17.915 14.522 32.434 32.436 32.434z"/><path d="M144.523 215.1c11.796 31.705 32.972 58.317 59.848 75.955 22.311 14.639 48.544 23.104 76.641 23.104 28.096 0 54.331-8.465 76.641-23.104 26.875-17.638 48.051-44.248 59.848-75.955 19.74-1.224 35.383-17.574 35.383-37.62 0-16.628-10.77-30.713-25.699-35.744C419.973 62.186 357.287 0 281.011 0 204.734 0 142.05 62.186 134.838 141.736c-14.93 5.03-25.698 19.116-25.698 35.744 0 20.046 15.643 36.399 35.383 37.62z"/></svg>